<?xml version="1.0" encoding="UTF-8"?>
<!--
  Zamboanga Website Templates - Common SVG Icons
  ==============================================
  Usage: <svg class="w-6 h-6"><use href="/shared/assets/icons/icons.svg#icon-name"></use></svg>
-->
<svg xmlns="http://www.w3.org/2000/svg" style="display: none;">

  <!-- Navigation & UI -->
  <symbol id="icon-menu" viewBox="0 0 24 24" fill="none" stroke="currentColor" stroke-width="2" stroke-linecap="round" stroke-linejoin="round">
    <line x1="3" y1="6" x2="21" y2="6"></line>
    <line x1="3" y1="12" x2="21" y2="12"></line>
    <line x1="3" y1="18" x2="21" y2="18"></line>
  </symbol>

  <symbol id="icon-close" viewBox="0 0 24 24" fill="none" stroke="currentColor" stroke-width="2" stroke-linecap="round" stroke-linejoin="round">
    <line x1="18" y1="6" x2="6" y2="18"></line>
    <line x1="6" y1="6" x2="18" y2="18"></line>
  </symbol>

  <symbol id="icon-chevron-down" viewBox="0 0 24 24" fill="none" stroke="currentColor" stroke-width="2" stroke-linecap="round" stroke-linejoin="round">
    <polyline points="6 9 12 15 18 9"></polyline>
  </symbol>

  <symbol id="icon-chevron-right" viewBox="0 0 24 24" fill="none" stroke="currentColor" stroke-width="2" stroke-linecap="round" stroke-linejoin="round">
    <polyline points="9 18 15 12 9 6"></polyline>
  </symbol>

  <symbol id="icon-arrow-right" viewBox="0 0 24 24" fill="none" stroke="currentColor" stroke-width="2" stroke-linecap="round" stroke-linejoin="round">
    <line x1="5" y1="12" x2="19" y2="12"></line>
    <polyline points="12 5 19 12 12 19"></polyline>
  </symbol>

  <symbol id="icon-arrow-up" viewBox="0 0 24 24" fill="none" stroke="currentColor" stroke-width="2" stroke-linecap="round" stroke-linejoin="round">
    <line x1="12" y1="19" x2="12" y2="5"></line>
    <polyline points="5 12 12 5 19 12"></polyline>
  </symbol>

  <!-- Contact & Social -->
  <symbol id="icon-phone" viewBox="0 0 24 24" fill="none" stroke="currentColor" stroke-width="2" stroke-linecap="round" stroke-linejoin="round">
    <path d="M22 16.92v3a2 2 0 0 1-2.18 2 19.79 19.79 0 0 1-8.63-3.07 19.5 19.5 0 0 1-6-6 19.79 19.79 0 0 1-3.07-8.67A2 2 0 0 1 4.11 2h3a2 2 0 0 1 2 1.72 12.84 12.84 0 0 0 .7 2.81 2 2 0 0 1-.45 2.11L8.09 9.91a16 16 0 0 0 6 6l1.27-1.27a2 2 0 0 1 2.11-.45 12.84 12.84 0 0 0 2.81.7A2 2 0 0 1 22 16.92z"></path>
  </symbol>

  <symbol id="icon-email" viewBox="0 0 24 24" fill="none" stroke="currentColor" stroke-width="2" stroke-linecap="round" stroke-linejoin="round">
    <path d="M4 4h16c1.1 0 2 .9 2 2v12c0 1.1-.9 2-2 2H4c-1.1 0-2-.9-2-2V6c0-1.1.9-2 2-2z"></path>
    <polyline points="22,6 12,13 2,6"></polyline>
  </symbol>

  <symbol id="icon-location" viewBox="0 0 24 24" fill="none" stroke="currentColor" stroke-width="2" stroke-linecap="round" stroke-linejoin="round">
    <path d="M21 10c0 7-9 13-9 13s-9-6-9-13a9 9 0 0 1 18 0z"></path>
    <circle cx="12" cy="10" r="3"></circle>
  </symbol>

  <symbol id="icon-clock" viewBox="0 0 24 24" fill="none" stroke="currentColor" stroke-width="2" stroke-linecap="round" stroke-linejoin="round">
    <circle cx="12" cy="12" r="10"></circle>
    <polyline points="12 6 12 12 16 14"></polyline>
  </symbol>

  <symbol id="icon-calendar" viewBox="0 0 24 24" fill="none" stroke="currentColor" stroke-width="2" stroke-linecap="round" stroke-linejoin="round">
    <rect x="3" y="4" width="18" height="18" rx="2" ry="2"></rect>
    <line x1="16" y1="2" x2="16" y2="6"></line>
    <line x1="8" y1="2" x2="8" y2="6"></line>
    <line x1="3" y1="10" x2="21" y2="10"></line>
  </symbol>

  <!-- Social Media -->
  <symbol id="icon-facebook" viewBox="0 0 24 24" fill="currentColor">
    <path d="M18 2h-3a5 5 0 0 0-5 5v3H7v4h3v8h4v-8h3l1-4h-4V7a1 1 0 0 1 1-1h3z"></path>
  </symbol>

  <symbol id="icon-instagram" viewBox="0 0 24 24" fill="none" stroke="currentColor" stroke-width="2" stroke-linecap="round" stroke-linejoin="round">
    <rect x="2" y="2" width="20" height="20" rx="5" ry="5"></rect>
    <path d="M16 11.37A4 4 0 1 1 12.63 8 4 4 0 0 1 16 11.37z"></path>
    <line x1="17.5" y1="6.5" x2="17.51" y2="6.5"></line>
  </symbol>

  <symbol id="icon-whatsapp" viewBox="0 0 24 24" fill="currentColor">
    <path d="M17.472 14.382c-.297-.149-1.758-.867-2.03-.967-.273-.099-.471-.148-.67.15-.197.297-.767.966-.94 1.164-.173.199-.347.223-.644.075-.297-.15-1.255-.463-2.39-1.475-.883-.788-1.48-1.761-1.653-2.059-.173-.297-.018-.458.13-.606.134-.133.298-.347.446-.52.149-.174.198-.298.298-.497.099-.198.05-.371-.025-.52-.075-.149-.669-1.612-.916-2.207-.242-.579-.487-.5-.669-.51-.173-.008-.371-.01-.57-.01-.198 0-.52.074-.792.372-.272.297-1.04 1.016-1.04 2.479 0 1.462 1.065 2.875 1.213 3.074.149.198 2.096 3.2 5.077 4.487.709.306 1.262.489 1.694.625.712.227 1.36.195 1.871.118.571-.085 1.758-.719 2.006-1.413.248-.694.248-1.289.173-1.413-.074-.124-.272-.198-.57-.347m-5.421 7.403h-.004a9.87 9.87 0 01-5.031-1.378l-.361-.214-3.741.982.998-3.648-.235-.374a9.86 9.86 0 01-1.51-5.26c.001-5.45 4.436-9.884 9.888-9.884 2.64 0 5.122 1.03 6.988 2.898a9.825 9.825 0 012.893 6.994c-.003 5.45-4.437 9.884-9.885 9.884m8.413-18.297A11.815 11.815 0 0012.05 0C5.495 0 .16 5.335.157 11.892c0 2.096.547 4.142 1.588 5.945L.057 24l6.305-1.654a11.882 11.882 0 005.683 1.448h.005c6.554 0 11.89-5.335 11.893-11.893a11.821 11.821 0 00-3.48-8.413z"/>
  </symbol>

  <!-- Business & Features -->
  <symbol id="icon-star" viewBox="0 0 24 24" fill="currentColor">
    <polygon points="12 2 15.09 8.26 22 9.27 17 14.14 18.18 21.02 12 17.77 5.82 21.02 7 14.14 2 9.27 8.91 8.26 12 2"></polygon>
  </symbol>

  <symbol id="icon-star-outline" viewBox="0 0 24 24" fill="none" stroke="currentColor" stroke-width="2" stroke-linecap="round" stroke-linejoin="round">
    <polygon points="12 2 15.09 8.26 22 9.27 17 14.14 18.18 21.02 12 17.77 5.82 21.02 7 14.14 2 9.27 8.91 8.26 12 2"></polygon>
  </symbol>

  <symbol id="icon-check" viewBox="0 0 24 24" fill="none" stroke="currentColor" stroke-width="2" stroke-linecap="round" stroke-linejoin="round">
    <polyline points="20 6 9 17 4 12"></polyline>
  </symbol>

  <symbol id="icon-check-circle" viewBox="0 0 24 24" fill="none" stroke="currentColor" stroke-width="2" stroke-linecap="round" stroke-linejoin="round">
    <path d="M22 11.08V12a10 10 0 1 1-5.93-9.14"></path>
    <polyline points="22 4 12 14.01 9 11.01"></polyline>
  </symbol>

  <symbol id="icon-users" viewBox="0 0 24 24" fill="none" stroke="currentColor" stroke-width="2" stroke-linecap="round" stroke-linejoin="round">
    <path d="M17 21v-2a4 4 0 0 0-4-4H5a4 4 0 0 0-4 4v2"></path>
    <circle cx="9" cy="7" r="4"></circle>
    <path d="M23 21v-2a4 4 0 0 0-3-3.87"></path>
    <path d="M16 3.13a4 4 0 0 1 0 7.75"></path>
  </symbol>

  <symbol id="icon-heart" viewBox="0 0 24 24" fill="none" stroke="currentColor" stroke-width="2" stroke-linecap="round" stroke-linejoin="round">
    <path d="M20.84 4.61a5.5 5.5 0 0 0-7.78 0L12 5.67l-1.06-1.06a5.5 5.5 0 0 0-7.78 7.78l1.06 1.06L12 21.23l7.78-7.78 1.06-1.06a5.5 5.5 0 0 0 0-7.78z"></path>
  </symbol>

  <symbol id="icon-shield" viewBox="0 0 24 24" fill="none" stroke="currentColor" stroke-width="2" stroke-linecap="round" stroke-linejoin="round">
    <path d="M12 22s8-4 8-10V5l-8-3-8 3v7c0 6 8 10 8 10z"></path>
  </symbol>

  <symbol id="icon-award" viewBox="0 0 24 24" fill="none" stroke="currentColor" stroke-width="2" stroke-linecap="round" stroke-linejoin="round">
    <circle cx="12" cy="8" r="7"></circle>
    <polyline points="8.21 13.89 7 23 12 20 17 23 15.79 13.88"></polyline>
  </symbol>

  <!-- Niche-Specific -->
  <symbol id="icon-utensils" viewBox="0 0 24 24" fill="none" stroke="currentColor" stroke-width="2" stroke-linecap="round" stroke-linejoin="round">
    <path d="M3 2v7c0 1.1.9 2 2 2h4a2 2 0 0 0 2-2V2"></path>
    <path d="M7 2v20"></path>
    <path d="M21 15V2v0a5 5 0 0 0-5 5v6c0 1.1.9 2 2 2h3Zm0 0v7"></path>
  </symbol>

  <symbol id="icon-stethoscope" viewBox="0 0 24 24" fill="none" stroke="currentColor" stroke-width="2" stroke-linecap="round" stroke-linejoin="round">
    <path d="M4.8 2.3A.3.3 0 1 0 5 2H4a2 2 0 0 0-2 2v5a6 6 0 0 0 6 6v0a6 6 0 0 0 6-6V4a2 2 0 0 0-2-2h-1a.2.2 0 1 0 .3.3"></path>
    <path d="M8 15v1a6 6 0 0 0 6 6v0a6 6 0 0 0 6-6v-4"></path>
    <circle cx="20" cy="10" r="2"></circle>
  </symbol>

  <symbol id="icon-book" viewBox="0 0 24 24" fill="none" stroke="currentColor" stroke-width="2" stroke-linecap="round" stroke-linejoin="round">
    <path d="M4 19.5A2.5 2.5 0 0 1 6.5 17H20"></path>
    <path d="M6.5 2H20v20H6.5A2.5 2.5 0 0 1 4 19.5v-15A2.5 2.5 0 0 1 6.5 2z"></path>
  </symbol>

  <symbol id="icon-home" viewBox="0 0 24 24" fill="none" stroke="currentColor" stroke-width="2" stroke-linecap="round" stroke-linejoin="round">
    <path d="M3 9l9-7 9 7v11a2 2 0 0 1-2 2H5a2 2 0 0 1-2-2z"></path>
    <polyline points="9 22 9 12 15 12 15 22"></polyline>
  </symbol>

  <symbol id="icon-camera" viewBox="0 0 24 24" fill="none" stroke="currentColor" stroke-width="2" stroke-linecap="round" stroke-linejoin="round">
    <path d="M23 19a2 2 0 0 1-2 2H3a2 2 0 0 1-2-2V8a2 2 0 0 1 2-2h4l2-3h6l2 3h4a2 2 0 0 1 2 2z"></path>
    <circle cx="12" cy="13" r="4"></circle>
  </symbol>

  <symbol id="icon-tool" viewBox="0 0 24 24" fill="none" stroke="currentColor" stroke-width="2" stroke-linecap="round" stroke-linejoin="round">
    <path d="M14.7 6.3a1 1 0 0 0 0 1.4l1.6 1.6a1 1 0 0 0 1.4 0l3.77-3.77a6 6 0 0 1-7.94 7.94l-6.91 6.91a2.12 2.12 0 0 1-3-3l6.91-6.91a6 6 0 0 1 7.94-7.94l-3.76 3.76z"></path>
  </symbol>

  <symbol id="icon-scissors" viewBox="0 0 24 24" fill="none" stroke="currentColor" stroke-width="2" stroke-linecap="round" stroke-linejoin="round">
    <circle cx="6" cy="6" r="3"></circle>
    <circle cx="6" cy="18" r="3"></circle>
    <line x1="20" y1="4" x2="8.12" y2="15.88"></line>
    <line x1="14.47" y1="14.48" x2="20" y2="20"></line>
    <line x1="8.12" y1="8.12" x2="12" y2="12"></line>
  </symbol>

  <symbol id="icon-dumbbell" viewBox="0 0 24 24" fill="none" stroke="currentColor" stroke-width="2" stroke-linecap="round" stroke-linejoin="round">
    <path d="M6.5 6.5L17.5 17.5"></path>
    <path d="M3 10V7a1 1 0 0 1 1-1h2"></path>
    <path d="M7 3h3v4"></path>
    <path d="M14 3h3a1 1 0 0 1 1 1v3"></path>
    <path d="M21 10v3"></path>
    <path d="M18 21h3a1 1 0 0 0 1-1v-2"></path>
    <path d="M21 14v3h-4"></path>
    <path d="M10 21H7a1 1 0 0 1-1-1v-3"></path>
    <path d="M3 14v-3"></path>
  </symbol>

  <symbol id="icon-bed" viewBox="0 0 24 24" fill="none" stroke="currentColor" stroke-width="2" stroke-linecap="round" stroke-linejoin="round">
    <path d="M2 4v16"></path>
    <path d="M2 8h18a2 2 0 0 1 2 2v10"></path>
    <path d="M2 17h20"></path>
    <path d="M6 8v9"></path>
  </symbol>

  <symbol id="icon-bath" viewBox="0 0 24 24" fill="none" stroke="currentColor" stroke-width="2" stroke-linecap="round" stroke-linejoin="round">
    <path d="M9 6 6.5 3.5a1.5 1.5 0 0 0-1-.5C4.683 3 4 3.683 4 4.5V17a2 2 0 0 0 2 2h12a2 2 0 0 0 2-2v-5"></path>
    <line x1="10" x2="8" y1="5" y2="7"></line>
    <line x1="2" x2="22" y1="12" y2="12"></line>
    <line x1="7" x2="7" y1="19" y2="21"></line>
    <line x1="17" x2="17" y1="19" y2="21"></line>
  </symbol>

  <symbol id="icon-square-meters" viewBox="0 0 24 24" fill="none" stroke="currentColor" stroke-width="2" stroke-linecap="round" stroke-linejoin="round">
    <rect x="3" y="3" width="18" height="18" rx="2" ry="2"></rect>
    <path d="M3 9h18"></path>
    <path d="M9 3v18"></path>
  </symbol>

  <symbol id="icon-image" viewBox="0 0 24 24" fill="none" stroke="currentColor" stroke-width="2" stroke-linecap="round" stroke-linejoin="round">
    <rect x="3" y="3" width="18" height="18" rx="2" ry="2"></rect>
    <circle cx="8.5" cy="8.5" r="1.5"></circle>
    <polyline points="21 15 16 10 5 21"></polyline>
  </symbol>

  <symbol id="icon-download" viewBox="0 0 24 24" fill="none" stroke="currentColor" stroke-width="2" stroke-linecap="round" stroke-linejoin="round">
    <path d="M21 15v4a2 2 0 0 1-2 2H5a2 2 0 0 1-2-2v-4"></path>
    <polyline points="7 10 12 15 17 10"></polyline>
    <line x1="12" y1="15" x2="12" y2="3"></line>
  </symbol>

  <symbol id="icon-external-link" viewBox="0 0 24 24" fill="none" stroke="currentColor" stroke-width="2" stroke-linecap="round" stroke-linejoin="round">
    <path d="M18 13v6a2 2 0 0 1-2 2H5a2 2 0 0 1-2-2V8a2 2 0 0 1 2-2h6"></path>
    <polyline points="15 3 21 3 21 9"></polyline>
    <line x1="10" y1="14" x2="21" y2="3"></line>
  </symbol>

  <symbol id="icon-play" viewBox="0 0 24 24" fill="currentColor">
    <polygon points="5 3 19 12 5 21 5 3"></polygon>
  </symbol>

  <symbol id="icon-quote" viewBox="0 0 24 24" fill="currentColor">
    <path d="M3 21c3 0 7-1 7-8V5c0-1.25-.756-2.017-2-2H4c-1.25 0-2 .75-2 1.972V11c0 1.25.75 2 2 2 1 0 1 0 1 1v1c0 1-1 2-2 2s-1 .008-1 1.031V21c0 1 0 1 1 1z"></path>
    <path d="M15 21c3 0 7-1 7-8V5c0-1.25-.757-2.017-2-2h-4c-1.25 0-2 .75-2 1.972V11c0 1.25.75 2 2 2h.75c0 2.25.25 4-2.75 4v3c0 1 0 1 1 1z"></path>
  </symbol>

</svg>
